<?xml version="1.0" standalone="no"?>
<!DOCTYPE svg PUBLIC "-//W3C//DTD SVG 20010904//EN"
 "http://www.w3.org/TR/2001/REC-SVG-20010904/DTD/svg10.dtd">
<svg version="1.0" xmlns="http://www.w3.org/2000/svg"
 width="605.000000pt" height="605.000000pt" viewBox="0 0 605.000000 605.000000"
 preserveAspectRatio="xMidYMid meet">
<metadata>
Created by potrace 1.14, written by Peter Selinger 2001-2017
</metadata>
<g transform="translate(0.000000,605.000000) scale(0.100000,-0.100000)"
fill="#000000" stroke="none">
<path d="M2819 5966 c-2 -2 -44 -7 -93 -11 -50 -4 -97 -8 -105 -10 -9 -1 -36
-6 -61 -9 -112 -17 -265 -51 -380 -83 -133 -38 -356 -117 -377 -135 -7 -6 -13
-7 -13 -2 0 4 -5 3 -12 -4 -17 -17 -41 -15 -34 3 3 8 2 15 -2 15 -8 0 -47 96
-58 143 -7 30 -25 35 -48 12 -8 -8 -19 -15 -25 -15 -6 0 -11 -5 -11 -12 0 -6
-2 -9 -5 -6 -7 6 -55 -34 -126 -104 -26 -25 -50 -43 -54 -40 -4 4 -5 2 -3 -3
4 -14 -37 -65 -52 -65 -6 0 -9 -4 -6 -9 3 -5 -7 -23 -24 -40 -16 -18 -28 -34
-27 -36 1 -2 -7 -14 -18 -27 -11 -13 -21 -27 -23 -33 -1 -5 -8 -17 -16 -27 -8
-9 -12 -19 -9 -22 4 -3 2 -6 -4 -6 -6 0 -14 -11 -17 -25 -4 -14 -17 -34 -29
-44 -12 -10 -65 -54 -117 -97 -52 -44 -130 -113 -172 -154 -43 -42 -79 -71
-81 -66 -4 11 -54 -35 -120 -111 -25 -28 -48 -49 -52 -45 -4 4 -5 3 -3 -3 4
-15 -27 -56 -37 -47 -5 4 -5 2 -2 -4 3 -5 -11 -28 -31 -51 -20 -22 -38 -43
-39 -47 -6 -24 -59 -94 -67 -89 -5 3 -6 1 -2 -5 3 -6 -1 -17 -9 -25 -8 -9 -15
-20 -15 -26 0 -5 -7 -14 -16 -19 -9 -5 -15 -12 -15 -15 3 -21 0 -27 -11 -21
-6 4 -8 3 -4 -4 3 -6 -1 -18 -10 -26 -8 -9 -12 -16 -8 -16 4 0 -1 -9 -11 -20
-10 -11 -14 -20 -10 -20 4 0 2 -8 -6 -17 -8 -10 -23 -36 -34 -58 -11 -22 -26
-44 -33 -48 -7 -5 -10 -12 -7 -16 2 -5 -5 -28 -17 -52 -12 -24 -23 -46 -23
-49 -1 -3 -8 -21 -17 -40 -8 -19 -21 -53 -29 -75 -8 -22 -18 -43 -24 -47 -5
-4 -7 -8 -3 -8 4 0 -4 -33 -18 -72 -14 -40 -28 -84 -30 -97 -3 -14 -7 -28 -10
-33 -3 -5 -7 -21 -10 -36 -3 -15 -7 -34 -11 -42 -3 -8 -7 -22 -8 -30 -5 -35
-15 -97 -20 -120 -10 -46 -13 -68 -21 -117 -3 -26 -8 -57 -10 -68 -26 -140
-26 -595 0 -785 32 -234 111 -525 196 -725 32 -76 144 -301 152 -306 5 -3 10
-10 10 -15 0 -38 303 -464 331 -464 6 0 8 -3 4 -6 -3 -3 13 -25 36 -49 23 -24
54 -56 68 -71 50 -56 212 -202 298 -270 14 -10 35 -29 48 -41 13 -13 28 -23
34 -23 5 0 12 -7 15 -15 4 -8 10 -13 14 -10 4 3 14 -2 21 -11 7 -8 26 -22 43
-31 17 -9 33 -19 36 -23 3 -3 34 -24 70 -45 36 -21 67 -41 70 -44 3 -3 27 -17
53 -31 95 -49 102 -53 109 -64 4 -6 8 -8 8 -4 0 4 35 -10 78 -31 129 -65 352
-150 477 -181 28 -6 57 -14 65 -17 20 -8 29 -10 69 -18 19 -3 37 -7 40 -9 3
-2 22 -7 41 -10 19 -3 46 -8 60 -10 168 -30 289 -39 530 -39 234 0 412 13 530
38 14 3 41 8 60 11 19 3 51 9 70 14 19 5 46 11 60 14 14 2 54 12 90 21 36 9
70 18 75 20 6 1 17 5 25 8 8 3 51 17 95 32 91 30 168 60 206 81 14 7 29 11 33
7 3 -3 6 -1 6 5 0 7 4 12 9 12 5 0 20 4 33 9 13 5 27 9 32 9 5 0 12 4 15 9 3
4 40 25 81 46 41 21 82 42 90 47 74 45 154 90 160 90 5 0 10 3 12 8 2 4 42 33
90 65 47 32 95 67 107 78 11 10 24 19 28 19 5 0 16 8 25 18 8 9 25 24 36 32
46 35 109 91 200 177 53 51 100 93 104 93 4 0 10 5 14 12 5 7 3 8 -7 3 -8 -5
0 5 16 21 17 16 46 49 65 73 19 24 40 48 45 55 6 6 24 29 40 51 16 22 38 48
49 57 10 10 16 18 12 18 -8 0 45 73 57 78 4 2 7 8 7 14 0 6 15 32 34 58 18 26
37 57 41 69 4 12 11 19 18 15 7 -4 9 -4 5 0 -4 5 2 24 14 44 41 74 98 190 98
201 0 6 5 11 12 11 6 0 9 2 6 5 -3 3 14 54 39 113 24 59 45 114 46 122 2 14
22 78 34 110 3 8 7 20 8 25 2 6 10 35 19 66 9 31 18 65 20 75 3 11 9 39 15 64
5 25 12 59 15 75 3 17 8 41 11 55 15 82 27 163 31 215 9 87 9 528 1 610 -12
122 -25 208 -37 254 -5 19 -7 37 -5 40 3 2 0 10 -6 18 -6 7 -9 13 -6 13 3 0
-8 51 -24 113 -17 61 -32 119 -34 128 -2 8 -10 32 -19 53 -9 21 -14 42 -11 46
3 5 1 10 -5 12 -9 3 -20 35 -22 66 -1 6 -4 12 -8 12 -3 0 -12 17 -19 38 -8 20
-32 75 -54 122 -23 47 -41 91 -40 98 0 6 -3 12 -8 12 -5 0 -9 4 -9 9 0 6 -17
38 -37 73 -21 35 -38 66 -38 69 0 3 -8 13 -18 23 -9 10 -15 22 -12 27 4 5 1 9
-5 9 -6 0 -14 8 -17 18 -4 9 -12 22 -17 28 -20 21 -39 52 -37 59 1 3 -6 14
-16 23 -10 9 -34 40 -53 67 -19 28 -41 58 -50 69 -31 38 -96 111 -125 141 -16
18 -51 55 -77 83 -27 28 -48 49 -48 47 0 -2 -13 8 -29 23 -15 15 -26 30 -24
35 2 4 -1 7 -7 7 -6 0 -46 30 -88 66 -42 37 -92 79 -109 94 -18 16 -33 26 -33
22 0 -3 -10 4 -22 15 -60 54 -272 187 -398 250 -41 20 -78 42 -82 48 -4 5 -8
7 -8 2 0 -4 -13 -1 -30 8 -16 8 -32 15 -35 15 -3 0 -20 7 -38 17 -17 9 -36 18
-42 19 -5 2 -53 19 -105 38 -52 20 -110 39 -127 42 -18 3 -33 10 -33 14 0 4
-6 7 -12 6 -13 -1 -111 21 -138 31 -8 3 -22 7 -30 9 -8 2 -31 6 -50 10 -19 4
-42 8 -50 9 -8 1 -35 5 -60 9 -81 13 -150 23 -235 32 -52 5 -571 14 -576 10z"/>
</g>
</svg>
